# xmcd
#
# Track frame offsets: 
#        150
#        16830
#        36173
#        57821
#        77771
#        86912
#        103979
#        121074
#        141154
#        155982
#        177580
#        198288
#
# Disc length: 2834 seconds
#
# Revision: 0
# Processed by: cddbd v1.5.2PL0 Copyright (c) Steve Scherf et al.
# Submitted via: ExactAudioCopyFreeDBPlugin 1.0
#
DISCID=a30b100c
DTITLE=John Denver - Setlist The Very Best of (Live)
DYEAR=2012
DGENRE=Country
TTITLE0=Thank God I'm a Country Boy
TTITLE1=The City of New Orleans
TTITLE2=Follow Me and Leaving on a Jet Plane
TTITLE3=Poems, Prayers and Promises
TTITLE4=Grandma's Feather Bed
TTITLE5=Wild Montana Skies
TTITLE6=Calypso
TTITLE7=Fly Away
TTITLE8=Take Me Home Country Roads
TTITLE9=Back Home Again
TTITLE10=Rocky Mountain High
TTITLE11=Annie's Song
EXTD=
EXTT0=
EXTT1=
EXTT2=
EXTT3=
EXTT4=
EXTT5=
EXTT6=
EXTT7=
EXTT8=
EXTT9=
EXTT10=
EXTT11=
PLAYORDER=
